<svg xmlns="http://www.w3.org/2000/svg" xml:space="preserve" width="512" height="512" style="enable-background:new 0 0 512 512"><path d="M365.116 450.376a1.669 1.669 0 0 1-.97.212c-.587.197-1.745.78-3.27 1.613a9379.687 9379.687 0 0 1-25.376 15.202c-1.364.833-2.281 1.383-2.921 1.741l-.62.376-.024-.033c-.695.344-.88.296-1.214.212a1.596 1.596 0 0 1-.846-.536c-2.018.954-2.898 1.119-3.453.982-.428-.112-.875-.441-1.091-.823-1.102-1.904-1.764-3.053 48.706-34.299a4813.704 4813.704 0 0 1 39.036-23.862c-22.342 10.94-74.718 43.881-109.131 66.492-.37.244-.831.329-1.269.226a1.628 1.628 0 0 1-1.03-.771c-.25-.429-.494-1.152-.222-2.14.287-1.05 1.43-2.503 3.293-4.291-22.315 12.414-23.933 11.995-24.893 11.751a1.893 1.893 0 0 1-1.181-.881c-.291-.503-.569-1.34-.239-2.479.611-2.083 3.622-4.957 8.738-8.594-26.918 15.1-28.791 14.619-29.872 14.347a1.902 1.902 0 0 1-1.204-.89c-.264-.455-.513-1.208-.222-2.215.315-1.076 1.397-2.423 3.213-4.036a1.633 1.633 0 0 1 .509-2.262c.37-.231 30.103-18.82 66.115-40.781a15756.322 15756.322 0 0 0-65.89 39.097c-.329.249-.823.292-1.247.18a1.619 1.619 0 0 1-.997-.759 2.316 2.316 0 0 1-.302-1.03l-29.072 16.789a1.629 1.629 0 0 1-1.666-2.8l53.862-32.874c7.521-4.808 17.536-10.959 30.898-18.857l145.65-88.886-210.27 124.607a1.632 1.632 0 0 1-2.221-.555 1.63 1.63 0 0 1 .532-2.229c.052-.033.663-.408 1.773-1.1a24219.978 24219.978 0 0 0-29.079 17.126l-.009.009a1.63 1.63 0 0 1-1.655-2.808l101.693-61.18-93.814 54.162a4573.975 4573.975 0 0 1-8.086 4.671 1.628 1.628 0 0 1-2.221-.598 1.64 1.64 0 0 1-.192-1.134l-.104.063a1.627 1.627 0 0 1-2.221-.598c-.259-.447-.508-1.195-.221-2.22.786-2.823 7.492-8.548 18.312-16.237a31527.489 31527.489 0 0 0-44.299 26.241c-.005.005-.005.009-.015.009a1.622 1.622 0 0 1-2.211-.573 1.626 1.626 0 0 1 .555-2.229l95.65-57.488c-16.374 9.516-29.413 16.735-39.798 22.253-26.125 14.935-43.557 24.798-43.91 25a1.627 1.627 0 0 1-1.613-2.827l10.118-5.842c-4.374 1.284-5.838.937-6.787.705-1.266-.301-1.9-1.006-2.207-1.542a1.624 1.624 0 0 1-.154-1.261c.118-.428.39-.805.795-.992.724-.387 73.368-39.187 144.851-79.695 41.971-23.782 75.334-43.49 99.163-58.575 28.016-17.733 38.147-26.138 41.717-30.062l-121.99 70.424c-59.863 37.413-126.355 77.376-161.482 93.237l-29.497 17.027a1.63 1.63 0 0 1-2.23-.588c-.361-.63-.705-1.688-.281-3.171a6.06 6.06 0 0 1 .372-.978c-14.117 6.891-15.988 6.415-17.1 6.134-.803-.203-1.223-.683-1.429-1.045a1.624 1.624 0 0 1 .568-2.206l10.368-6.237c-3.505.894-4.799.578-5.673.367-1.266-.306-1.901-1.007-2.211-1.547-.81-1.402-1.105-1.911 17.662-13.279-.08-.107-.16-.23-.23-.357-.297-.513-.578-1.359-.249-2.54.602-2.174 3.649-5.396 8.88-9.571l-14.379 8.301a1.629 1.629 0 0 1-2.225-.597c-.264-.456-.518-1.157-.418-2.099a24692.82 24692.82 0 0 1-32.122 18.199 1.629 1.629 0 0 1-1.613-2.831l29.187-16.845a1.628 1.628 0 0 1-.18-2.888l9.422-5.641c-3.264 1.501-6.185 2.752-8.754 3.755-4.99 2.258-6.387 2.412-7.088 2.309-1.901.442-3.34.551-4.299.311-1.148-.286-1.722-.927-2.005-1.425-.216-.372-.281-.95-.173-1.369.141-.503.319-1.167 4.689-4.289L124.85 443.66a1.627 1.627 0 0 1-1.636-2.815l14.195-8.349c-.88.409-1.717.531-2.323-.517a3.074 3.074 0 0 1-.395-1.727c-.584.08-1.116.127-1.6.131-2.306 1.294-4.332 2.433-6.04 3.393l-6.308 3.641a1.634 1.634 0 0 1-1.806-.118 1.632 1.632 0 0 1-.579-1.722l.042-.132c-8.48 4.534-13.245 6.458-14.896 6.05-.579-.146-1.055-.494-1.332-.979a1.638 1.638 0 0 1-.155-1.27c.128-.424.424-.79.814-.988 9.619-5 19.896-10.371 30.667-16.034-.714.065-1.307.037-1.772-.076-1.119-.276-1.684-.902-1.962-1.387a1.606 1.606 0 0 1-.164-1.224l-1.378.795a1.629 1.629 0 0 1-1.648-2.808l8.151-4.845c-4.016 1.171-7.318 1.769-9.812 1.716a9122.846 9122.846 0 0 0-32.846 21.225 1.622 1.622 0 0 1-2.295-.551c-.653-1.134-.768-2.446-.334-3.904 1.063-3.612 6.096-8.612 14.313-14.741a1.61 1.61 0 0 1-.917-.734c-.235-.403-.457-1.021-.382-1.848-9.28 3.824-16.053 5.568-19.633 4.708-1.506-.362-2.602-1.124-3.26-2.263-.221-.386-.287-.997-.165-1.425.423-1.472 5.357-4.845 19.126-12.634.018-.523.286-1.03.762-1.327 27.103-16.99 219.752-137.428 310.834-186.273l49.225-29.497c-6.712 3.128-16.077 7.975-27.582 14.209L86.041 404.167c-.754.483-1.76.207-2.221-.564a1.62 1.62 0 0 1 .541-2.226c.324-.197 11.928-7.313 30.889-18.87-32.859 18.729-42.253 23.688-45.212 24.929l-.287.166-.022-.043c-.838.329-1.021.272-1.2.23a1.7 1.7 0 0 1-1.012-.776 1.626 1.626 0 0 1 .584-2.216l18.594-10.959c-1.086-.283-1.643-.918-1.919-1.397a1.626 1.626 0 0 1 .583-2.22l19.219-11.326a4572.135 4572.135 0 0 0-13.871 7.46l-21.109 12.191a1.626 1.626 0 0 1-2.226-.598 1.708 1.708 0 0 1-.154-1.308c.183-.639.939-1.396 5.668-4.152-3.35 1.001-5.908 1.34-7.597.94-1.562-.372-2.352-1.246-2.737-1.915-.56-.959-.649-2.093-.273-3.358.664-2.243 3.283-5.348 7.563-9.162-9.887 3.795-17.079 5.498-20.889 4.609-1.637-.387-2.822-1.194-3.518-2.399a1.673 1.673 0 0 1-.161-1.256c.151-.555.254-.922 8.104-5.568a4.443 4.443 0 0 1-.926-1.125 1.632 1.632 0 0 1 .574-2.21l22.672-13.613a10.555 10.555 0 0 1-2-.235c-1.819-.419-3.137-1.307-3.908-2.648a1.633 1.633 0 0 1 .569-2.21l207.24-124.324L52.625 357.901a1.622 1.622 0 0 1-2.22-.598c-.208-.353-.405-.94-.193-1.722.23-.847.579-2.121 6.566-6.745a7.351 7.351 0 0 1-.852.085c-9.482 4.347-15.832 6.298-18.758 5.579-1.27-.316-1.91-1.03-2.225-1.576-.23-.4-.452-1.063-.207-1.957.71-2.567 7.502-7.991 19.473-15.889a1.708 1.708 0 0 1-.569-.574 1.632 1.632 0 0 1 .579-2.226l12.399-7.342a316.333 316.333 0 0 1 8.222-5.606 453.98 453.98 0 0 1-6.685 3.278l-10.216 5.898a1.637 1.637 0 0 1-2.051-.353c-11.562 4.798-14.055 4.182-15.499 3.828-1.223-.301-1.834-.978-2.13-1.495a1.642 1.642 0 0 1-.16-1.262 1.67 1.67 0 0 1 .795-.987c.226-.122 6.021-3.245 15.974-8.645-2.7.645-4.901.907-6.543.747-4.248 2.328-6.613 3.622-6.759 3.702a1.622 1.622 0 0 1-2.197-.635 1.62 1.62 0 0 1 .607-2.206l4.638-2.682a4.258 4.258 0 0 1-.296-.446 1.63 1.63 0 0 1 .574-2.211l29.52-17.596c-3.518 1.612-6.749 3.019-9.689 4.199-4.37 2.211-8.076 3.909-11.091 5.076l-20.974 12.111a1.627 1.627 0 0 1-1.637-2.813l13.4-7.86a3.054 3.054 0 0 1-.47-.334c-15.052 7.503-16.797 7.052-17.832 6.788-.583-.151-1.058-.499-1.335-.983-.296-.508-.579-1.364-.24-2.555.202-.704.475-1.664 1.919-3.405-3.745 2.084-5.828 3.241-5.96 3.316a1.624 1.624 0 0 1-2.182-.574 1.633 1.633 0 0 1 .494-2.205c2.093-1.388 11.03-7.306 24.878-16.384-10.179 5.842-14.394 8.029-16.247 8.665-.019.009-.033.019-.042.022l-.004-.01c-.598.203-.936.235-1.157.189a1.759 1.759 0 0 1-1.03-.791 1.618 1.618 0 0 1-.057-1.523c-.348.174-.752.23-1.133.136a1.601 1.601 0 0 1-1.025-.771 2.039 2.039 0 0 1-.184-1.571c.301-1.102.856-3.086 22.413-16.929.08-.226.211-.433.386-.603-6.124 2.577-10.306 3.674-12.385 3.161-1.134-.287-1.712-.931-1.994-1.425a1.602 1.602 0 0 1-.104-.207c-1.881.423-3.326.512-4.309.268-1.195-.291-1.792-.964-2.084-1.473a1.624 1.624 0 0 1 .569-2.21L217.88 161.928 45.198 261.631a1.634 1.634 0 0 1-2.22-.583 1.633 1.633 0 0 1 .569-2.226l5.333-3.182c-5.104 2.063-6.171 1.792-6.886 1.608-.785-.198-1.195-.661-1.397-1.019-.226-.386-.442-1.023-.202-1.881.211-.767 1.006-1.797 2.361-3.081a3.208 3.208 0 0 1-1.157-1.153 1.637 1.637 0 0 1-.155-1.249c.075-.28.226-.529.428-.731-6.868 4.179-13.608 8.281-20.174 12.295-.39.217-.828.294-1.251.187a1.65 1.65 0 0 1-1.007-.767 2.403 2.403 0 0 1-.151-.289c-1.18.538-1.674.601-2.018.517a1.737 1.737 0 0 1-1.054-.787 1.628 1.628 0 0 1 .588-2.218l2.733-1.607c1.073-2.25 3.702-5.179 7.658-8.662-2.912 1.51-4.835 2.505-5.635 2.917-.785.402-1.75.11-2.173-.668a1.626 1.626 0 0 1 .612-2.19l33.109-19.115c37.221-24.716 99.483-59.671 159.037-91.833 49.676-30.419 92.842-55.831 121.681-70.452 1.34-1.414 2.324-2.672 2.935-3.765-14.247 8.229-79.958 46.188-145.678 84.142a467873.14 467873.14 0 0 1-102.108 58.958 83407.887 83407.887 0 0 1-33.655 19.417l-11.924 6.868c-.184.101-.376.211-.578.315l-.25.15-.015-.023c-.79.351-1.641.47-2.234-.557a1.627 1.627 0 0 1 .569-2.208l116.858-70.501c-57.064 32.634-107.823 60.894-108.401 61.223a1.626 1.626 0 0 1-2.197-.6c-11.642 5.602-17.658 7.688-20.997 8.373-1.849 1.082-2.865 1.677-2.954 1.727l-.029-.054c-.706.341-.894.299-1.162.235a1.619 1.619 0 0 1-1.034-.774 1.616 1.616 0 0 1-.071-1.505 2.938 2.938 0 0 1-.983-1.014 1.708 1.708 0 0 1-.16-1.295c.348-1.238 1.576-2.176 37.145-21.433C157.245 137.318 283.793 56.605 314.41 52.586c3.928-3.5 6.331-6.345 6.909-8.394.117-.418.122-.727.01-.925-.023-.035-.142-.124-.442-.195-2.38-.562-7.493.896-14.731 3.951-27.338 16.075-73.543 43.204-119.573 70.05a19337.127 19337.127 0 0 1-54.591 31.752c-31.938 20.292-61.078 39.245-80.834 52.301a1.652 1.652 0 0 1-1.27.228 1.619 1.619 0 0 1-1.035-.772c-.272-.47-.532-1.258-.226-2.339.221-.812.866-1.816 1.905-3.006-11.435 6.188-12.075 6.014-12.606 5.875a1.738 1.738 0 0 1-1.03-.783 1.625 1.625 0 0 1 .593-2.223 21272.207 21272.207 0 0 0 38.297-22.272c19.417-12.938 47.954-30.099 81.402-49.462L42.098 192.82a1.625 1.625 0 0 1-2.22-.592 2.105 2.105 0 0 1-.184-1.616c.259-.955.715-2.636 14.13-11.794-.908.336-1.454.419-1.788.339a1.89 1.89 0 0 1-1.091-.818c-.24-.419-.471-1.115-.207-2.07.719-2.613 7.337-8.168 17.996-15.677l-22.653 13.079a1.625 1.625 0 0 1-2.22-.597c-.894-1.55-1.232-2.129 20.837-16.184-5.08 2.171-8.599 3.212-10.127 2.841-.931-.226-1.411-.767-1.651-1.178a1.642 1.642 0 0 1-.155-1.253c.118-.421.438-.762.791-.991 39.694-21.665 88.448-48.822 130.062-72.813a23845.806 23845.806 0 0 1 79.079-47.933c.075-.04.146-.083.221-.111 5.946-4.073 9.854-7.116 11.219-8.871-2.126.081-7.766 1.855-22.234 9.241-9.389 14.071-92.979 61.306-171.286 104.833-13.81 7.679-26.246 14.591-32.441 18.194-2.751 1.764-4.29 2.752-4.375 2.811a1.65 1.65 0 0 1-1.265.211 1.623 1.623 0 0 1-1.026-.769 1.666 1.666 0 0 1-.164-1.27c.16-.572.249-.887 4.953-3.65a6377.224 6377.224 0 0 1 49.385-31.36c-36.295 20.88-36.803 20.736-37.527 20.548a1.675 1.675 0 0 1-1.002-.767c-.23-.407-.456-1.082-.207-2.004.903-3.312 11.783-11.56 27.611-22.077-.302-.16-.55-.4-.725-.696a2.466 2.466 0 0 1-.31-.945c-9.136 4.812-15.434 7.608-17.08 7.199a2.039 2.039 0 0 1-1.284-.945c-.221-.378-.433-1.004-.212-1.83 1.167-4.33 17.305-13.972 53.868-34.932 23.531-13.49 55.259-31.691 59.571-37.521-8.387 1.86-48.857 26.752-84.789 50.628-.762.487-1.749.296-2.248-.444s-.305-1.747.428-2.255l43.354-29.728c-5.677 3.307-6.011 3.231-6.707 3.053a1.689 1.689 0 0 1-1.025-.781 1.626 1.626 0 0 1 1.284-2.437c1.886-.79 12.111-6.978 20.371-11.983 23.481-14.224 23.786-14.148 24.915-13.854.429.105.823.404 1.045.786a1.628 1.628 0 0 1-.489 2.152l-16.472 11.298c10.973-6.179 19.6-10.301 22.173-9.699.869.205 1.322.717 1.548 1.11.243.428.488 1.136.23 2.093-.711 2.625-6.05 6.948-15.339 12.985a2718.118 2718.118 0 0 1 37.483-20.767 1.628 1.628 0 0 1 1.642 2.809 5039.797 5039.797 0 0 1-41.271 25.567 4478.66 4478.66 0 0 1 58.882-34.015 1.628 1.628 0 0 1 1.655 2.801c-.334.205-33.698 20.678-67.314 40.713-28.942 17.249-46.153 27.096-56.488 32.687-17.473 11.04-31.114 20.23-37.403 25.63 25.594-14.226 129.122-74.5 186.361-107.938.362-.251.818-.28 1.236-.165.424.108.776.384.993.757.028.047.057.099.085.15 11.951-5.938 20.306-9.195 23.188-8.497 1.054.254 1.585.849 1.849 1.308.217.374.428 1 .193 1.834-.301 1.077-.842 2.999-12.987 11.369a1.416 1.416 0 0 1-.357.306c-.409.263-.889.569-1.435.917-6.411 4.346-15.673 10.269-29.06 18.392-35.847 22.547-93.942 58.608-134.446 81.306-1.157.715-2.286 1.418-3.41 2.116l36.421-21.028c66.887-40.393 152.805-88.51 167.923-96.948a1.628 1.628 0 0 1 1.608 2.829l-166.46 96.106c-55.404 33.352-73.711 46.776-79.36 52.164 10.992-5.898 42.592-25.433 75.758-45.924C227.541 69.185 301.375 24.18 310.405 26.46c.904.226 1.374.752 1.604 1.155.221.378.273.823.16 1.242a1.622 1.622 0 0 1-.752.986l-.01.002C223.793 79.679 99.732 151.869 57.479 180.184l244.319-141.06a1.633 1.633 0 0 1 2.226.595c.705 1.228 1.185 2.051-10.071 9.532.701-.338 1.401-.67 2.084-.997l2.324-1.284c11.336-6.27 20.611-11.399 25.927-14.389l5.056-2.977c.386-.205.818-.28 1.237-.17.424.108.776.381.993.757.221.381.276.835.164 1.256-.07.251-.122.435-.776.908l.028.054-1.006.595c-.744.467-1.83 1.103-3.411 2.008-2.107 1.24-4.92 2.898-8.35 4.916 1.407-.214 2.551-.229 3.415-.024 1.44.339 2.159 1.131 2.513 1.736.564.985.668 2.142.301 3.438-.475 1.682-1.923 3.774-4.242 6.225 11.081-6.555 19.294-11.441 23.767-14.165 2.483-1.585 3.857-2.465 3.956-2.531a1.614 1.614 0 0 1 1.266-.211c.433.108.8.385 1.025.769.396.687.611 1.068-.602 2.077l.07.108c-.282.184-10.8 6.917-27.879 17.735.137.357.207.837.048 1.43-.156.562-.377 1.352-2.509 3.316l35.843-20.697a1.63 1.63 0 0 1 1.661 2.803L185.942 145.052c74.671-43.126 150.528-86.946 152.024-87.809a1.627 1.627 0 0 1 2.219.595c.569.983.663 2.138.282 3.438a6.16 6.16 0 0 1-.259.715L345.394 59a1.636 1.636 0 0 1 1.702.042c11.406-5.19 19.229-7.686 22.611-6.851.974.24 1.594.701 1.989 1.15 4.229-1.597 7.243-2.215 9.007-1.79 1.233.297 1.858.995 2.169 1.529.222.383.434 1.016.198 1.858-.729 2.623-8.481 8.419-22.456 17.159a1.63 1.63 0 0 1-.748 1.682c-.484.298-31.486 19.365-73.73 44.986l94.125-54.342a1.626 1.626 0 0 1 1.653 2.803L31.063 277.915c1.764-.456 4.336-1.341 8.053-2.916a13995.394 13995.394 0 0 0 98.627-54.413c46.877-28.039 101.375-62.009 146.145-89.923 80.1-49.93 100.734-62.524 103.627-61.807.424.11.89.449 1.115.833.051.099.108.214.159.341 5.89-2.825 9.686-4.106 11.247-3.723.842.211 1.289.713 1.505 1.094.447.771.188 1.75-.568 2.208L367.397 89.79a546.11 546.11 0 0 1-9.427 6.286c5.955-2.577 9.991-3.977 12.804-4.701a11730.09 11730.09 0 0 1 18.41-10.336 1.632 1.632 0 0 1 2.211.619 1.623 1.623 0 0 1-.602 2.211l-10.659 6.157c13.434-5.871 23.081-8.777 27.545-7.729 1.511.355 2.602 1.103 3.25 2.22.222.383.273.837.155 1.263-.117.418-.409.759-.79.985-.391.21-16.157 8.711-41.039 22.293-5.354 3.577-12.062 7.914-20.457 13.196 42.526-25.701 69.596-39.878 76.942-38.086 1.346.329 2.019 1.082 2.353 1.656a1.625 1.625 0 0 1-.583 2.22l-6.355 3.725a1.63 1.63 0 0 1 .979 3.022l-165.542 98.674c-45.302 28.064-93.001 56.87-131.563 78.418l-11.124 6.637 254.546-146.962a6193.013 6193.013 0 0 0 30.264-19.972 1.66 1.66 0 0 1 1.273-.226c.438.101.814.376 1.04.769.175.311.348.786.269 1.414.235.137.442.339.588.591.282.491.555 1.319.226 2.462-.226.8-.555 1.957-2.817 4.342L438.8 97.356c.004-.002.009-.009.019-.014a1.627 1.627 0 0 1 2.196.557c.471.758.24 1.75-.508 2.228-.522.332-29.935 19.021-72.423 45.558l53.435-30.85a1.629 1.629 0 0 1 1.646 2.811l-33.717 19.96c30.358-16.908 50.208-27.867 50.636-28.104a1.63 1.63 0 0 1 2.206.624 1.634 1.634 0 0 1-.602 2.21l-9.055 5.23c8.123-4.01 13.335-5.861 15.452-5.338.945.232 1.435.783 1.679 1.204.311.543.611 1.458.249 2.733-1.613 5.682-19.474 18.62-48.227 36.388l42.512-24.542a1.623 1.623 0 0 1 2.216.581 1.624 1.624 0 0 1-.561 2.223L74.046 353.922c.117.033.244.065.376.094 1.849.428 4.506.227 7.87-.545l289.847-174.004c17.789-11.181 32.949-20.334 45.315-27.208l13.89-8.337c.649-.318 1.322-.292 1.845.113 10.438-5.014 17.563-7.244 21.18-6.39 1.595.379 2.399 1.27 2.795 1.952.263.454.324 1.002.184 1.541-.146.526-.805 1.317-1.972 2.378 3.415-2.263 6.755-4.483 10.024-6.654a1.654 1.654 0 0 1 1.274-.23c.438.104.813.384 1.04.771.775 1.353 1.246 2.166-18.101 14.355 2.572-.91 4.92-1.639 7.018-2.175l10.142-6.037c.748-.393 1.754-.216 2.22.541.466.757.24 1.748-.508 2.225l-3.527 2.253c.319.038.62.087.903.155 1.59.369 2.747 1.155 3.419 2.331a1.62 1.62 0 0 1-.583 2.215l-16.731 9.814c.095.014.184.033.273.056 1.514.358 2.281 1.208 2.652 1.858.696 1.202.813 2.63.357 4.236-.357 1.237-1.124 2.646-2.285 4.216l10.483-6.054a1.627 1.627 0 0 1 2.217.593 1.625 1.625 0 0 1-.579 2.223l-15.118 8.911a4.322 4.322 0 0 1 1.562 1.573 1.635 1.635 0 0 1-.583 2.218l-35.452 20.899a727.137 727.137 0 0 1-7.003 4.647c3.767-2.103 7.304-4.074 10.62-5.901 21.778-12.714 42.254-24.673 60.542-35.367 0-.003 0-.003.004-.003a1.628 1.628 0 0 1 1.648 2.809l-14.455 8.563c3.095-1.025 3.956-.807 4.586-.647.809.205 1.224.68 1.435 1.044a1.631 1.631 0 0 1-.574 2.21l-26.528 15.896c5.483-2.227 9.229-3.25 10.875-2.841.438.111.775.28 1.039.473 18.618-8.509 22.141-7.648 23.998-7.202 1.374.332 2.051 1.089 2.38 1.658.264.449.33.988.175 1.515-.992 3.556-23.769 16.926-80.222 48.145-29.125 17.502-68.223 39.279-113.209 63.688-15.202 9.774-30.526 19.582-45.63 29.14l220.989-127.593a1.629 1.629 0 0 1 1.647 2.811L440.58 223c6.002-2.58 10.983-4.391 14.746-5.303 7.353-4.93 14.38-9.667 21.035-14.168a1.56 1.56 0 0 1 1.274-.24c.438.101.819.383 1.045.773.54.937.63 2.035.264 3.267-.382 1.31-1.459 2.928-3.162 4.821-1.636 3.596-7.954 8.869-18.527 15.779.118.109.222.235.301.376.028.047.057.092.08.141 3.613-1.519 6.6-2.571 8.919-3.124 10.104-6.364 15.997-10.103 16.213-10.24.381-.266.832-.315 1.262-.209.432.106.798.384 1.023.765.354.614.684 1.646.26 3.102-1.124 3.847-8.702 10.614-20.969 19.44-.376.327-.791.678-1.247 1.049.038.367.01.79-.127 1.27-.037.127-.089.259-.141.397 16.57-9.579 26.74-15.459 27.327-15.797a1.627 1.627 0 0 1 2.221.588 1.634 1.634 0 0 1-.578 2.228l-8.584 5.046a4548.741 4548.741 0 0 1 10.354-5.938 1.624 1.624 0 0 1 2.215.602 1.621 1.621 0 0 1-.598 2.22l-113.138 65.323c1.213-.668 2.44-1.336 3.659-2.009 25.381-13.909 48.956-26.83 66.007-36.371 27.248-16.943 27.531-16.872 28.519-16.625.428.105.81.393 1.03.776.165.285.245.656.221 1.001a1.626 1.626 0 0 1 1.685.763 1.62 1.62 0 0 1-.551 2.231c-.696.421-60.956 36.828-129.563 77.59l-21.869 13.1 151.893-87.698a1.621 1.621 0 0 1 2.22.597c.155.261.231.633.226.979l3.396-1.961a1.658 1.658 0 0 1 1.236-.165c.415.113.772.385.989.76.264.456.324 1.001.173 1.533-.512 1.785-6.256 5.805-18.791 13.108.151.123.287.273.387.452.268.466.334 1.021.178 1.571-.301 1.11-2.422 3.024-6.57 5.902 2.921-1.043 5.075-1.43 6.425-1.114 1.157.273 1.755.937 2.046 1.448a1.623 1.623 0 0 1-.592 2.221c-.254.151-.509.301-.772.452a1.613 1.613 0 0 1 1.496.762c.471.753.25 1.75-.498 2.229-.264.174-9.863 6.364-25.569 16.378a5567.93 5567.93 0 0 1 36.059-18.325 1.63 1.63 0 0 1 2.154.663 1.633 1.633 0 0 1-.569 2.178c-.113.065-1.684 1.035-4.525 2.78.198.381.25.902.137 1.308-.311 1.101-3.043 3.142-13.096 8.933a6999.64 6999.64 0 0 1-43.514 28.137l57.767-33.349a1.627 1.627 0 0 1 2.225.593c.306.531.593 1.425.24 2.666-.226.781-.555 1.915-2.526 4.121a450.28 450.28 0 0 0 3.063-1.985 1.67 1.67 0 0 1 1.271-.216c.432.107.804.386 1.029.767.202.357.395.936.188 1.702-.306 1.115-.847 3.096-16.52 13.764l10.381-5.997a1.632 1.632 0 0 1 2.221.583 1.637 1.637 0 0 1-.569 2.225l-54.106 32.518c47.644-27.136 49.215-26.728 50.202-26.469.419.113.852.433 1.068.81.221.377.276.828.155 1.246-.117.424-.419.767-.776.992-.668.367-67.226 37.154-133.162 75.477-92.07 53.485-121.501 74.153-130.354 82.127L469.374 324.9a1.632 1.632 0 0 1 2.225.597c.211.367.386.674.239 1.106l.683-.396a1.627 1.627 0 0 1 1.656 2.803l-44.427 26.731c44.178-25.287 45.278-24.995 46.158-24.761a1.71 1.71 0 0 1 1.034.781c.447.771.188 1.76-.583 2.215l-1.383.819c.494.184.895.508 1.143.936a1.637 1.637 0 0 1-.56 2.211l-73.354 44.766c36.083-19.991 65.062-35.607 65.443-35.819a1.63 1.63 0 0 1 1.585 2.847l-31.252 18.042c.34.146.649.415.828.72.019.033.033.063.052.095 15.494-7.986 17.391-7.512 18.405-7.257.612.149 1.106.512 1.397 1.015.31.537.603 1.426.254 2.634-1.35 4.634-13.565 13.017-34.069 24.78-3.419 2.488-8.923 6.171-17.624 11.797a1868.835 1868.835 0 0 1-19.69 12.521l45.861-26.472a1.62 1.62 0 0 1 2.22.592c.123.212.203.434.255.669a421.51 421.51 0 0 1 1.985-1.121 1.63 1.63 0 0 1 1.645 2.81c-.245.15-16.082 9.854-37.56 22.832 11.139-5.989 19.432-9.663 22.062-9.036.922.216 1.396.753 1.632 1.161a1.625 1.625 0 0 1-.569 2.211c-21.438 12.879-49.201 29.827-69.526 42.695 3.354-2.036 6.723-4.097 9.931-6.063 30.456-18.621 33.654-20.296 35.146-19.915.424.108.843.419 1.063.8.918 1.59.918 1.59-11.21 9.035-5.724 3.519-13.733 8.379-23.795 14.441-.26.15-.508.301-.758.451a1.63 1.63 0 0 1-.8 1.203zm-39.088 8.161c-5.833 3.909-10.678 7.333-14.28 10.127a2757.577 2757.577 0 0 1 31.58-20.24 3245.413 3245.413 0 0 1-17.3 10.113zm-43.73 20.137c5.757-2.281 21.924-11.256 42.852-23.383 6.1-4.115 13.047-8.593 20.427-13.222l-62.625 36.157a1.493 1.493 0 0 1-.404.164c-.09.1-.175.194-.25.284zm48.223-33.33c.785-.419 1.59-.843 2.394-1.271 2.413-1.478 4.821-2.954 7.22-4.427-3.34 1.986-6.543 3.881-9.614 5.698zm-70.491 35.662c10.095-4.007 48.717-26.368 91.045-51.646a6685.808 6685.808 0 0 0-25.174 13.198 4702.62 4702.62 0 0 1-53.313 29.492c-6.175 3.806-10.62 6.905-12.558 8.956zm167.579-97.996a1.63 1.63 0 0 1 1.966.259c20.734-12.253 25.217-16.98 26.068-18.702-2.653.517-9.018 3.49-18.063 8.278-5.065 5.79-22.366 17.268-44.323 30.616 2.465-1.316 4.888-2.624 7.272-3.914a6758.544 6758.544 0 0 0 27.042-16.519l.038-.018zm-104.027 57.089c39.619-22.3 78.857-45.269 98.806-58.946-26.877 15.051-65.813 38.354-103.759 61.566 1.623-.862 3.274-1.732 4.953-2.62zm-92.263 5.922 102.822-59.366c2.263-1.378 4.549-2.774 6.863-4.186-.771.438-1.539.871-2.319 1.307-59.868 33.872-119.846 66.201-137.033 75.421 4.319-1.158 12.846-4.494 29.667-13.176zm-37.103 6.377 162.193-93.642c24.149-15.07 47.884-30.136 69.188-43.796-29.074 17.69-65.4 39.682-101.869 61.453-69.172 41.295-110.64 65.011-135.654 78.572a159.1 159.1 0 0 0 6.142-2.587zm-24.751 14.29 10.038-5.795c-1.274.272-2.39.419-3.325.433a843.858 843.858 0 0 1-3.909 2.018c-1.233 1.247-2.174 2.366-2.804 3.344zm15.231-13.551c41.109-22.258 112.286-64.233 184.022-107.471a7834.501 7834.501 0 0 0-26.19 14.333 6288.408 6288.408 0 0 1-19.718 12.121c-67.559 41.374-107.86 64.229-132.122 76.771a269.33 269.33 0 0 0-5.992 4.246zm-23.674 12.206c2.779-1.307 6.011-2.911 9.642-4.779.405-.395.828-.795 1.279-1.208a3.485 3.485 0 0 1-.211-.451l-10.71 6.438zm229.659-135.334c3.627-1.972 7.272-3.952 10.917-5.932 9.243-5.02 18.199-9.883 26.543-14.432 7.687-4.684 15.296-9.332 22.762-13.898a6405.008 6405.008 0 0 0-31.92 16.43 9227.151 9227.151 0 0 1-28.302 17.832zM181.069 449.195c-.319.287-.626.569-.922.847l2.018-1.214c-.372.128-.738.25-1.096.367zm158.745-91.398c.23-.131.476-.268.71-.395.763-.471 1.533-.944 2.291-1.415l-3.001 1.81zM155.405 460.489c2.423-.362 7.306-1.844 17.112-6.341.631-1.049 1.552-2.225 2.742-3.504-1.595.23-2.944.244-4.026.019-7.474 4.534-12.912 7.898-15.828 9.826zm33.811-17.897c7.409-3.364 16.613-8.27 27.061-14.28l29.126-17.526c17.313-10.763 36.213-22.992 55.169-35.442-48.142 26.597-90.185 51.344-111.356 67.248zm145.293-85.778c-2.004 1.332-4.008 2.658-6.016 3.989l11.976-7.201c-1.986 1.068-3.981 2.14-5.96 3.212zM177.212 447.06a38.231 38.231 0 0 0 2.545-.72 108.648 108.648 0 0 1 3.424-2.859c-2.084 1.241-4.074 2.44-5.969 3.579zm185.882-109.168a5881.484 5881.484 0 0 1 28.442-15.009l72.847-43.825a56976.141 56976.141 0 0 0-101.289 58.834zm-126.107 63.429c-1.604.944-3.194 1.881-4.761 2.813-55.78 33.039-61.613 40.89-61.534 42.729.033.038.086.104.18.179 7.229-4.351 16.905-10.108 29.836-17.779 26.637-15.8 63.876-37.664 110.678-64.987 16.6-9.689 33.255-19.397 49.225-28.691 14.75-9.779 28.207-18.646 40.287-26.492a13677.052 13677.052 0 0 1-41.421 23.058c-27.894 15.47-58.228 32.31-86.157 48.194l-36.333 20.976zM446.97 284.204c-4.53 2.619-9.864 5.809-16.138 9.693a1321.05 1321.05 0 0 0-17.366 10.95 70279.174 70279.174 0 0 1 52.935-30.72c-3.75 1.53-9.765 4.503-19.431 10.077zm-30.456 9.708 5.488-3.17c-.521.281-1.053.573-1.584.86-1.28.753-2.569 1.525-3.904 2.31zM164.188 439.596l49.093-28.346a30220.62 30220.62 0 0 1-48.326 27.489c-.292.31-.546.588-.767.857zm-11.642-6.205c18.443-7.906 93.143-51.068 175.849-100 25.268-15.518 49.962-30.866 71.627-44.365-4.05 2.224-8.301 4.553-12.756 6.993-45.09 24.715-100.537 55.104-146.177 81.172-30.113 17.771-55.984 33.241-73.322 44.004-10.446 6.929-15.126 10.743-17.003 12.837a69.439 69.439 0 0 0 1.782-.641zm-4.596-10.649c8.844-5.085 22.079-12.715 38.273-22.061-8.616 4.821-17.45 9.756-26.51 14.816l-16.101 8.998c1.3-.497 2.735-1.076 4.338-1.753zm213.911-128.289 70.357-40.622c19.582-12.559 31.821-20.513 32.126-20.715a1.68 1.68 0 0 1 1.195-.235c3.058-2.519 4.205-3.963 4.469-4.786-.362-.108-.908-.129-1.713-.007-22.421 14.151-62.046 39.041-106.434 66.365zm-124.897 68.881c9.506-5.17 19.698-10.701 30.583-16.6 5.785-3.137 11.595-6.283 17.403-9.436a6978.7 6978.7 0 0 0 28.321-17.079c53.401-32.381 106.394-65.442 138.543-85.628-3.796 1.837-8.335 4.151-13.758 7.049l-34.864 20.47c-10.292 6.167-21.279 12.653-32.767 19.238l-29.444 17.29c-30.753 18.877-63.571 39.403-93.858 58.346-3.462 2.164-6.844 4.281-10.159 6.35zm235.261-137.727a2.777 2.777 0 0 1 1.09 1.989c3.621-2.999 6.223-5.531 7.662-7.53-2.352 1.494-5.287 3.349-8.752 5.541zM137.028 418.4c1.35-.399 3.053-1.002 5.188-1.857 9.31-5.848 23.646-14.088 43.501-25.118a9356.647 9356.647 0 0 0 27.996-17.404 1237.456 1237.456 0 0 1-21.68 12.079l-55.005 32.3zm-3.23-8.636c4.321-1.232 9.638-3.235 15.784-5.902l34.423-20.447a9860.063 9860.063 0 0 1-50.207 26.349zm57.803-33.984a8467.31 8467.31 0 0 0 52.027-27.785l80.924-48.067c-8.528 4.365-17.362 8.885-26.51 13.552-.063.037-.133.07-.194.103-37.135 21.802-74.125 43.495-106.247 62.197zm270.778-158.331c.8.35 1.294.839 1.595 1.281 2.912-2.295 5.33-4.362 7.216-6.192-2.104 1.136-5.076 2.794-8.811 4.911zM346.46 285.036c8.453-4.355 16.766-8.66 24.818-12.864l15.742-9.352a5546.72 5546.72 0 0 0 22.823-14.941c-18.9 11.047-40.63 23.799-63.383 37.157zm109.926-64.173c-3.16 2.115-6.608 4.412-10.329 6.889l12.678-7.534c-.476.036-1.002.101-1.567.2-.259.149-.522.297-.782.445zM97.108 425.974c-2.07 1.994-3.49 3.743-4.196 5.222 1.369-.891 3.185-2.061 5.404-3.501a1.754 1.754 0 0 1-.997-.78 1.565 1.565 0 0 1-.211-.941zm127.875-74.963a7396.51 7396.51 0 0 0-34.672 21.75c17.86-10.4 37.207-21.713 56.953-33.284a6705.01 6705.01 0 0 0-22.281 11.534zm-101.106 60.047c.785-.446 1.595-.903 2.408-1.364l7.837-5.019-10.627 6.299c.029.005.058.014.081.018.099.024.197.042.301.066zm-5.137 2.887 1.613-.903a4.681 4.681 0 0 1-1.218-1.396 1.634 1.634 0 0 1 .574-2.217l34.416-20.399c-25.234 14.196-44.962 26.411-54.826 34.944a6039.259 6039.259 0 0 0 19.441-10.029zm150.896-89.609c8.805-4.502 17.699-9.046 26.646-13.612 8.208-4.817 16.331-9.587 24.295-14.268 61.124-35.898 97.832-57.387 119.958-70.2-9.106 3.996-20.738 9.833-34.281 17.091l-136.618 80.989zm-49.291 25.391c.203-.104.414-.217.621-.324l2.296-1.355-2.917 1.679zm-104.93 54.796c32.555-16.123 84.229-47.826 136.652-81.124-5.824 3.128-11.718 6.285-17.662 9.469l-113.187 67.438a199.574 199.574 0 0 0-5.803 4.217zm-32.179 10.759c.104.037.217.07.349.108 3.584.859 11.054-1.374 21.444-5.974a39.828 39.828 0 0 1 2.502-2.489 2.496 2.496 0 0 1-.174-.229 1.634 1.634 0 0 1 .503-2.226c.357-.23 15.095-9.728 38.472-24.591-32.493 17.428-57.959 31.379-63.096 35.401zm361.598-203.026c18.938-10.783 32.084-18.676 35.537-21.769-1.797-.167-6.948.703-21.604 7.396a4.295 4.295 0 0 1-.122.537c-.871 3.031-5.669 7.728-13.811 13.836zm-100.282 55.551c1.209-.663 2.422-1.326 3.631-1.994 18.65-10.235 37.022-20.315 53.872-29.634 21.552-12.914 38.218-23.775 46.909-31.148l-93.072 55.455c-3.744 2.414-7.531 4.861-11.34 7.321zm-118.2 65.512a4251.572 4251.572 0 0 1 16.473-9.257l111.496-66.43c15.001-9.671 28.097-18.077 39.445-25.292-28.109 16.013-62.634 36.52-103.029 61.199a8098.912 8098.912 0 0 0-64.385 39.78zm-75.199 40.297c9.567-5.122 20.324-10.865 32.409-17.3 26.383-16.633 57.376-36.017 89.106-55.523l-121.515 72.823zm229.645-137.611c30.217-17.448 51.162-28.73 65.777-35.996-6.389 2.665-16.887 7.731-34.022 16.958l-32.216 19.301c.156-.089.306-.176.461-.263zM93.124 389.421a71.572 71.572 0 0 0 3.946-1.702l66.374-39.121c3.472-2.211 7.018-4.483 10.635-6.807-.498.268-.997.536-1.495.8l-79.46 46.83zm155.886-91.868c5.085-2.785 10.197-5.603 15.306-8.415l151.412-89.248a591.943 591.943 0 0 0 6.125-4.203L249.01 297.553zm194.996-114.921a158.87 158.87 0 0 1-2.233 1.903l5.089-3.001a7.644 7.644 0 0 0-.932-.038l-1.924 1.136zm-94.276 50.414 82.178-47.446c-13.561 5.738-33.895 17.079-57.714 31.435a6964.72 6964.72 0 0 1-24.464 16.011zM189.272 325.69l83.49-48.203c36.685-23.919 72.349-46.871 102.024-64.662a6117.64 6117.64 0 0 0 39.873-26.487 7834.655 7834.655 0 0 0-20.094 10.399l-73.214 42.929c-19.713 12.74-40.033 26.042-59.732 38.935-24.915 16.308-49.468 32.371-72.347 47.089zm224.914-135.147c13.26-6.844 23.569-11.157 29.915-12.074 4.506-4.151 7.285-7.581 8.02-10.134.311-1.093.042-1.562-.047-1.717-.08-.137-.277-.242-.589-.318-1.42-.336-3.729.047-6.833 1.065l-5.87 3.44c.38.116.724.367.939.734a1.621 1.621 0 0 1-.488 2.173 4581.503 4581.503 0 0 1-25.047 16.831zm-303.649 179.95 1.331-.763c37.226-21.495 91.013-56.58 141.609-89.689-56.035 33.834-94.858 56.176-121.858 70.89l-41.773 24.491c.009 0 .019.005.033.005 3.686.852 10.817-.968 20.658-4.934zm-34.412 7.098c-6.228 5.015-9.967 8.919-10.724 11.482-.066.216-.151.606-.033.813.033.056.146.248.677.376 4.063.969 15.065-3.66 30.691-12.069-3.203.677-5.757.832-7.592.408-1.717-.395-2.959-1.236-3.688-2.507a1.62 1.62 0 0 1 .01-1.646l-4.253 2.531c-.742.361-1.604.243-2.102-.387a63.076 63.076 0 0 1-2.986.999zm235.303-137.127a6910.213 6910.213 0 0 1-25.673 16.153 8876.786 8876.786 0 0 0 30.593-18.775c-1.638.872-3.279 1.745-4.92 2.622zM433 168.832c3.579-1.672 6.754-3.006 9.506-3.979l22.239-13.042c-1.35-.23-3.152-.122-5.367.304-6.134 3.899-15.15 9.618-26.378 16.717zM176.271 314.698a7808.168 7808.168 0 0 0-35.471 23.001l89.268-53.166c-18.716 10.321-36.848 20.475-53.797 30.165zM73.999 374.039a240.13 240.13 0 0 0 4.059-1.744 215.989 215.989 0 0 1 3.819-2.846 5646.96 5646.96 0 0 0-7.878 4.59zm199.343-116.76c8.57-4.631 17.084-9.205 25.447-13.685l28.679-17.08a9231.095 9231.095 0 0 0 26.951-17.21 24031.225 24031.225 0 0 1-81.077 47.975zM49.625 380.413c.023.005.042.015.065.019 3.034.711 8.58-.456 16.213-3.213a3.21 3.21 0 0 1-.168-.258 1.63 1.63 0 0 1 .592-2.221c1.223-.711 2.456-1.43 3.698-2.154-5.325 2.056-9.544 3.138-12.489 3.114-3.632 2.121-6.313 3.716-7.911 4.713zm384.161-218.805a8713.913 8713.913 0 0 1-27.438 17.924l37.423-22.291a254.584 254.584 0 0 0-9.985 4.367zM66.271 370.644c13.293-4.619 36.52-17.573 64.809-34.878-9.318 4.845-17.856 9.026-25.41 12.394-15.885 9.027-29.428 16.74-39.399 22.484zm217.033-123.527c-5.936 3.66-11.91 7.356-17.916 11.089a27909.122 27909.122 0 0 0 50.057-29.549 19201.169 19201.169 0 0 1-32.141 18.46zm-180.575 98.974a62906.504 62906.504 0 0 1 42.264-23.985 54661.92 54661.92 0 0 0 67.164-38.118c16.872-11.054 33.97-22.348 50.645-33.368a23351.807 23351.807 0 0 1 28.976-19.116L96.572 348.701a230.922 230.922 0 0 0 6.157-2.61zM358.62 198.244c16.661-9.62 32.296-18.338 46.266-25.689 27.004-16.223 45.343-27.905 48.848-31.715-.037-.007-.074-.019-.107-.026-3.764-.887-13.119 2.839-26.478 9.885-14.28 9.659-51.11 34.445-95.979 63.648 9.379-5.579 18.56-10.97 27.45-16.103zm14.671-15.676c-31.257 19.638-68.181 43.998-104.794 68.189 37.475-23.657 75.565-48.474 109.605-71.078l-4.811 2.889zM66.285 366.881a5171.761 5171.761 0 0 1 19.435-11.11c-.577.165-1.142.315-1.688.456l-17.747 10.654zm-2.95-18.924 8.203-4.736c-1.48.691-2.822 1.304-4.045 1.84a269.068 269.068 0 0 0-4.158 2.896zm88.454-53.786c13.387-7.634 27.724-16.078 42.634-25.043-5.517 2.982-11.049 5.965-16.614 8.97a5278.936 5278.936 0 0 1-26.02 16.073zm140.312-82.066c2.99-1.665 5.973-3.316 8.941-4.974a14526.533 14526.533 0 0 0 51.228-31.216 23326.84 23326.84 0 0 0-35.555 20.365 6940.679 6940.679 0 0 1-24.614 15.825zm-54.837 30.116c2.94-1.604 5.89-3.21 8.834-4.819 2.408-1.5 4.803-3.003 7.216-4.513a8047.672 8047.672 0 0 0-16.05 9.332zm190.087-112.703c2.041-1.155 3.16-1.79 3.259-1.844a1.628 1.628 0 0 1 2.202.588c.01.007.01.014.014.023 11.925-8.714 13.839-11.926 14.074-12.957-2.64-.11-10.602 3.605-22.333 10.041-.269.388-.716.849-1.321 1.396.39.028.752.078 1.081.158 1.304.31 2.253.962 2.817 1.938.117.209.187.431.207.657zM38.034 351.438c1.115.399 4.473-.01 14.083-4.337a1.637 1.637 0 0 1-1.576-.809 1.762 1.762 0 0 1-.16-1.316c.221-.772 2.065-2.211 8.523-5.987.484-.312.987-.641 1.51-.979-1.12-.296-2.022-.795-2.7-1.481-11.326 7.299-18.428 12.543-19.68 14.909zm60.635-34.383c11.422-6.19 25.485-13.764 42.781-23.072l74.69-43.665c16.51-10.376 33.254-20.955 49.825-31.418a24545.7 24545.7 0 0 1 20.039-12.649c-5.706 3.166-11.619 6.442-17.72 9.826-27.738 15.384-58.443 32.407-88.143 49.067a8389.721 8389.721 0 0 0-81.472 51.911zm241.277-140.842a9459.888 9459.888 0 0 0-40.447 25.379l32.413-18.952a7610.658 7610.658 0 0 0 20.852-13.617c-4.083 2.296-8.355 4.69-12.818 7.19zm56.059-31.907c-3.396 2.257-7.051 4.682-10.936 7.258l36.989-21.628c-.992 0-2.192.155-3.593.452-4.718 3.255-12.108 7.826-22.46 13.918zm-335.36 190.34c.198.094.447.178.752.249.964.221 2.173.263 3.598.131a8895.857 8895.857 0 0 1 59.371-38.278c-25.738 14.771-48.152 28.002-63.721 37.898zm211.644-124.507c22.591-12.528 45.248-25.101 65.842-36.633a4849.654 4849.654 0 0 1 33.246-20.581l-99.088 57.214zM44.93 328.682c3.391-.832 9.389-3.07 19.827-8.034l32.253-19.257c-7.027 3.632-13.519 6.821-19.365 9.511a9923.413 9923.413 0 0 1-32.715 17.78zm28.532-19.205c25.885-14.116 63.703-34.859 104.339-57.56 21.425-12.843 44.12-26.796 66.966-41.075a10434.56 10434.56 0 0 1-25.357 14.367c-67.221 37.968-134.794 75.203-163.505 90.97 4.51-1.218 10.431-3.503 17.557-6.702zm236.169-135.966a7852.135 7852.135 0 0 1-22.715 14.513l89.526-53.443c11.646-7.968 17.493-12.733 20.277-15.586l-.112.068c-7.676 6.242-28.645 20.356-86.976 54.448zm-101.083 54.126c36.351-20.506 71.073-40.348 100.622-57.618 2.437-1.567 4.863-3.125 7.286-4.685l-107.908 62.303zm-100.824 50.254c3.684-1.998 7.488-4.097 11.417-6.278l100.56-59.947-74.055 42.756c-13.995 8.793-26.657 16.64-37.922 23.469zm-52.497 21.303c28.048-14.953 74.022-41.402 126.529-72.303-29.765 15.758-59.567 31.635-83.453 44.909-19.304 11.637-34.248 21.082-43.076 27.394zm316.051-181.958c-.306.184-.617.372-.923.562l.607-.359c.109-.069.208-.135.316-.203zm32.545-21.527c2.916-1.59 4.529-2.472 4.646-2.536a1.63 1.63 0 0 1 2.319.902l11.544-6.767c-2.869.569-8.397 2.523-19.003 7.822.183.134.338.304.451.506l.043.073zM27.837 312.172c2.422-.513 7.813-2.901 15.659-6.868.216-.404.592-.935 1.293-1.664-.005-.25.033-.522.117-.819.95-3.292 11.124-10.399 29.234-21.034a22676.654 22676.654 0 0 1-34.06 19.097c-8.57 6.429-11.528 9.67-12.243 11.288zm150.898-87.36c7.926-4.2 16.158-8.554 24.682-13.057 6.425-3.394 12.888-6.809 19.341-10.221 7.78-4.979 15.377-9.833 22.79-14.568a9917.48 9917.48 0 0 0-66.813 37.846zm116.945-65.849c-1.435.903-2.874 1.811-4.313 2.726 2.418-1.454 4.831-2.907 7.244-4.355-.979.545-1.953 1.083-2.931 1.629zm55.734-34.5c6.58-3.624 12.747-7.014 18.405-10.123 6.566-3.986 13.043-7.921 19.393-11.785-8.339 4.565-18.574 10.423-31.185 17.945a2551.816 2551.816 0 0 0-6.613 3.963zm-76.995 42.67c6.523-3.64 12.973-7.227 19.29-10.738a5230.474 5230.474 0 0 1 23.448-14.697c-12.121 7.321-26.257 15.743-42.738 25.435zM71.313 279.683c87.446-49.092 186.973-106.061 250.67-144.692a13387.5 13387.5 0 0 0-29.619 16.38c-23.35 13.723-52.954 30.831-90.536 52.211-28.181 16.033-56.432 31.946-81.737 46.134-20.344 12.14-36.299 21.99-48.778 29.967zM388.395 94.929a7163.462 7163.462 0 0 1 17.705-9.598c-3.175-.329-8.627 1.044-15.969 3.845.202.153.38.341.507.567.212.374.424 1.001.193 1.834-.155.568-.386 1.385-2.436 3.352zm-30.9 16.846c3.891-2.126 7.611-4.163 11.148-6.087 8.542-5.705 14.482-10.057 17.287-12.749-1.77.731-4.215 1.891-7.269 3.436-1.917 2.107-7.012 6.23-21.166 15.4zM215.181 190.88l4.393-2.483a9983.252 9983.252 0 0 1 70.754-39.62c29.445-17.305 53.617-31.943 68.857-41.933-33.077 18.365-88.901 51.284-144.004 84.036zM28.862 296.813c8.302-4.585 16.853-9.317 25.574-14.157 13.965-8.166 32.155-18.947 52.31-30.943a7518.966 7518.966 0 0 1 65.005-41.376l-77.648 44.831a9405.986 9405.986 0 0 0-65.241 41.645zm247.405-146.822c-20.597 12.22-42.474 25.524-64.756 39.301 65.293-38.803 111.229-65.777 140.11-81.936-7.775 4.083-16.176 8.643-25.071 13.606l-50.283 29.029zm38.721-27.158a29756.684 29756.684 0 0 1 30.927-17.465 598.626 598.626 0 0 0-13.485 6.851 1990.262 1990.262 0 0 1-17.442 10.614zM39.586 278.455c6.51-2.29 19.76-8.612 46.303-23.871-18.769 10.537-33.853 18.373-44.28 22.771-.711.385-1.378.752-2.023 1.1zm261.526-152.903c2.3-1.291 4.529-2.539 6.693-3.741l59.676-35.873a315.541 315.541 0 0 0 5.56-3.878c-18.189 10.352-43.965 26.11-71.929 43.492zM86.938 232.484c3.702-2.053 7.588-4.229 11.642-6.512l158.374-94.547a25425.785 25425.785 0 0 1-43.071 23.789c-6.553 3.61-13.237 7.295-19.991 11.025-2.596 1.477-5.202 2.954-7.785 4.429-40.964 26.343-74.68 47.656-99.169 61.816zm-42.417 21.343c2.85-.787 8.316-3.259 15.898-7.112-5.847 2.74-10.357 4.422-13.457 4.944-1.04.827-1.858 1.557-2.441 2.168zm11.491-8.577c8.104-3.641 21.712-10.823 44.54-24.558 9.755-5.868 20.438-12.472 31.735-19.561a20852.778 20852.778 0 0 1-53.979 30.325c-8.914 5.303-16.497 9.979-22.296 13.794zM373.39 56.062c.099.358.099.741-.01 1.122-.334 1.207-.982 3.538-30.762 22.061 20.748-12.246 34.793-21.3 37.051-24.68-.785-.154-2.517.053-6.279 1.497zm-136.337 81.734C302.697 100.006 356 68.292 367.892 58.609c-.763.285-1.638.638-2.615 1.059-8.143 3.956-20.669 10.792-39.917 22.392a1806.083 1806.083 0 0 0-8.819 5.365c-10.568 6.961-23.34 14.92-37.54 23.486-13.533 8.594-27.691 17.694-41.948 26.885zM95.325 217.708c23.552-13.599 54.121-30.635 90.649-50.814 9.093-5.856 18.247-11.771 27.329-17.642-34.191 19.478-70.01 39.313-101.017 56.282a18282.228 18282.228 0 0 0-69.164 41.842 15173.1 15173.1 0 0 0 32.809-18.297 1436.272 1436.272 0 0 1 19.394-11.371zm-67.37 32.459c-.348.32-.673.633-.988.94l1.317-.771a1.706 1.706 0 0 1-.329-.169zM361.184 57.659c1.51-.774 2.846-1.456 4.002-2.046-1.109.259-2.524.661-4.321 1.277.042.052.075.104.108.161.111.194.177.398.211.608zm-13.726 5.322 4.214-2.437a228.286 228.286 0 0 0-3.903 1.764 5.703 5.703 0 0 1-.311.673zm-17.404 10.05 7.733-4.463c1.628-1.315 2.898-2.425 3.876-3.356a379.791 379.791 0 0 0-3.626 1.794l-3.453 1.992a92.436 92.436 0 0 1-4.53 4.033zm-153.355 88.535 73.26-42.295c-11.278 6-22.634 12.079-33.917 18.17l-3.129 1.804a6813.536 6813.536 0 0 0-36.214 22.321zM40.057 240.457l6.256-3.607-4.549 2.375c-.583.416-1.148.827-1.707 1.232zM293.944 92.461c5.748-3.008 11.289-5.9 16.575-8.65a344.168 344.168 0 0 0 7.263-5.115l-23.838 13.765zM90.594 209.869c6.214-3.309 12.517-6.67 18.871-10.078 5.418-3.405 10.828-6.804 16.209-10.177l-35.08 20.255zM256.677 96.02l24.529-14.167c16.082-9.972 27.959-17.794 33.712-22.399a10489.84 10489.84 0 0 1-58.241 36.566zM81.68 197.049l59.488-34.342c10.311-6.12 21.5-12.827 33.659-20.188-19.412 10.802-39.68 21.914-60.137 33.036a122111.445 122111.445 0 0 1-70.659 41.265c8.688-4.148 20.8-10.418 37.649-19.771zm9.44-12.404c6.862-3.708 14.13-7.65 21.689-11.754 69.13-40.396 144.906-84.745 191.21-112.031a204.8 204.8 0 0 0 5.222-3.965c-34.86 10.272-145.97 80.812-218.121 127.75zm-26.51 2.803c-3.532 2.566-6.124 4.593-8.02 6.205a5696.822 5696.822 0 0 1 18.811-12.296 2199.18 2199.18 0 0 1-10.791 6.091zm100.161-65.452c16.241-9.353 33.522-19.167 51.396-29.231 10.635-6.383 20.988-12.5 30.856-18.175.965-.585 1.929-1.168 2.874-1.743l-85.126 49.149zm77.856-56.442a14849.867 14849.867 0 0 1 55.8-32.058c-19.178 9.132-59.178 32.851-99.248 57.249 15.141-8.82 29.906-17.375 43.448-25.191zm-174.569 86.51c7.286-3.492 17.225-8.829 28.98-15.458 2.789-1.731 5.687-3.523 8.688-5.381a8608.11 8608.11 0 0 1-37.668 20.839zm30.061-24.872c27.662-15.419 60.377-33.815 88.797-50.678 31.411-18.648 47.254-29.363 55.127-35.515-17.883 9.614-45.273 25.386-87.221 51.023-19.826 12.119-39.524 24.382-56.703 35.17zm-9.789-10.647c2.451-1.083 6.247-3.029 11.093-5.659 4.812-3.063 9.863-6.213 15.07-9.434-9.394 5.497-18.166 10.501-25.589 14.544-.207.192-.399.373-.574.549zm-18.394 5.541c3.513-1.421 9.708-4.622 17.723-9.062 4.779-4.193 13.372-10.08 23.853-16.703-17.509 10.071-35.764 20.783-41.576 25.765z" style="fill:#db0c0b"/><path d="M407.486 191.513s-2.996-22.232-12.258-31.993c-11.754-12.829-24.934-12.9-30.992-13.648-43.288-3.24-108.164-3.24-108.164-3.24h-.146s-64.915 0-108.161 3.24c-6.059.748-19.229.819-30.998 13.648-9.247 9.76-12.275 32.025-12.275 32.025s-3.081 26.044-3.081 52.162v24.438c0 26.119 3.081 52.196 3.081 52.196s3.028 22.235 12.275 31.995c11.77 12.827 27.254 12.432 34.094 13.753 24.74 2.493 105.137 3.278 105.137 3.278s64.951-.146 108.239-3.387c6.059-.747 19.238-.817 30.992-13.645 9.262-9.76 12.258-31.995 12.258-31.995s3.101-26.077 3.101-52.196v-24.438c-.001-26.116-3.102-52.193-3.102-52.193zm-99.901 61.174-83.488 45.106-.038-69.446v-21.125l37.656 20.522 45.87 24.943z" style="fill:#fff"/></svg>